<svg xmlns="http://www.w3.org/2000/svg" viewBox="0 0 158.21 50"><defs><style>.cls-1{fill:#00643c;}.cls-2{fill:#23af37;}.cls-3{fill:#8cc31e;}.cls-4{fill:#008741;}.cls-5{fill:#009b46;}.cls-6{fill:#232323;}</style></defs><g id="レイヤー_2" data-name="レイヤー 2"><g id="Header"><path class="cls-1" d="M36.33,50H33.15V32.11H21.06V50H17.89V30.53a1.59,1.59,0,0,1,1.58-1.59H34.74a1.59,1.59,0,0,1,1.59,1.59Z"/><path class="cls-2" d="M7.49,17.89H1.59A1.59,1.59,0,0,0,0,19.47V41.06H3.17v-20H7.49Z"/><path class="cls-3" d="M37.88,22.1h3.18V1.59A1.59,1.59,0,0,0,39.47,0H17a1.59,1.59,0,0,0-1.58,1.59V8.94h3.17V3.17h19.3Z"/><path class="cls-4" d="M48.41,22.1H30.53a1.59,1.59,0,0,0-1.59,1.59v5.25h3.17V25.27H46.83V45.53H50V23.69A1.59,1.59,0,0,0,48.41,22.1Z"/><path class="cls-5" d="M23.32,28.94h3.17V10.53a1.59,1.59,0,0,0-1.58-1.59H9.08a1.59,1.59,0,0,0-1.59,1.59v35h3.17V12.12H23.32Z"/><polygon class="cls-6" points="153.92 6.34 141.11 25.51 128.31 6.34 124.02 6.34 124.02 43.66 128.87 43.66 128.87 15.47 138.37 29.66 143.85 29.66 153.36 15.47 153.36 43.66 158.21 43.66 158.21 6.34 153.92 6.34"/><path class="cls-6" d="M82.14,23.73a9.54,9.54,0,0,0,3.14-7.36c0-6.43-5-10-10.59-10H57.46V43.66H75.2c6,0,11.57-3.93,11.57-11A10.35,10.35,0,0,0,82.14,23.73ZM62.31,11H74.69c2.73,0,5.93,1.4,5.93,5.36s-3.2,5.37-5.93,5.37H62.31ZM80.19,37.3a7.71,7.71,0,0,1-5,1.69H62.31V26.4H75.2a7.66,7.66,0,0,1,5,1.7,5.79,5.79,0,0,1,1.92,4.6A5.82,5.82,0,0,1,80.19,37.3Z"/><path class="cls-6" d="M107.13,6.34H91.62V43.66h4.85v-14h10.66c6.44,0,12.31-4.17,12.31-11.65S113.57,6.34,107.13,6.34Zm5.51,16.78A8.35,8.35,0,0,1,107.13,25H96.47V11h10.66a8.37,8.37,0,0,1,5.51,1.87A6.48,6.48,0,0,1,114.78,18,6.45,6.45,0,0,1,112.64,23.12Z"/></g></g></svg>